<svg width="188" height="48" viewBox="0 0 188 48" fill="none" xmlns="http://www.w3.org/2000/svg">
<g clip-path="url(#clip0_612_2736)">
<path fill-rule="evenodd" clip-rule="evenodd" d="M50.3332 24.2122L53.305 31.6216C54.5551 34.5733 55.6491 37.6513 55.6491 38.7814C55.6491 40.3512 55.3878 41.544 54.1887 42.0475C53.7734 42.1717 53.5121 42.2971 53.5121 42.5488C53.5121 42.6741 53.7734 42.7368 54.0326 42.7368C54.3448 42.7368 56.0676 42.5488 60.3405 42.5488C63.3634 42.5488 65.8126 42.7368 66.1759 42.7368C66.6443 42.7368 66.9066 42.6125 66.9066 42.4235C66.9066 42.1091 66.2821 41.8584 65.7085 41.356C64.1451 39.9115 63.1021 38.09 62.2163 36.1442L46.8919 1.60804C46.7889 1.35631 46.6327 1.10565 46.4766 1.10565C46.2663 1.10565 46.1643 1.29471 46.0071 1.60804L33.2361 31.4973C32.0912 34.1973 29.2755 39.4091 27.1926 41.4197C26.8262 41.7341 26.2006 41.9837 26.2006 42.4235C26.2006 42.6125 26.3567 42.7368 26.8804 42.7368C27.5049 42.7368 28.8602 42.5488 30.943 42.5488C33.8097 42.5488 35.6886 42.7368 36.0518 42.7368C36.4151 42.7368 36.6764 42.6741 36.6764 42.4235C36.6764 42.2344 36.5213 42.1091 36.1028 41.9837C34.6966 41.356 33.2903 40.6656 33.2903 37.9657C33.2903 35.3911 34.1761 33.0045 35.114 30.807L37.9265 24.2133L50.3332 24.2122ZM49.6566 22.6435H38.6073L44.0794 9.58143L49.6566 22.6435ZM70.7494 23.3572C70.3957 22.4597 69.768 21.0885 69.768 20.1432C69.768 19.1034 70.2396 18.5362 70.8673 18.3472C71.221 17.8278 70.9045 17.78 70.709 17.78C70.3968 17.78 68.9841 17.968 67.1785 17.968C65.2954 17.968 64.314 17.78 63.6862 17.78C63.4112 17.78 63.1775 17.78 63.1775 17.968C65.2954 19.7651 66.5508 22.8368 68.041 26.4299L74.9066 42.5488C75.1434 43.0204 75.1816 43.2583 75.2995 43.2583C75.4971 43.2583 75.7308 42.8802 75.8497 42.5966L83.4992 24.9642C84.8332 22.0805 86.2076 19.575 87.5034 18.4874C87.737 18.2983 87.8571 18.1103 87.8571 17.9202C87.8571 17.7789 87.6191 17.7789 87.3451 17.7789C86.3265 17.7789 85.9739 17.9669 84.4434 17.9669C82.8343 17.9669 82.4816 17.7789 81.4599 17.7789C82.3627 18.6297 83.2251 19.1969 83.2251 20.8049C83.2251 22.1751 82.5974 23.9244 81.8922 25.7682L76.8715 37.5377L70.7494 23.3572ZM119.833 17.78C118.384 18.3939 116.776 18.7253 114.892 19.1512C114.422 19.2457 114.146 19.2457 114.146 19.387C114.146 19.4815 114.422 19.6228 114.853 19.8596C115.952 20.4268 116.226 22.0338 116.226 24.8707V36.5945C116.226 39.5716 116.071 41.7936 114.109 42.1707C113.675 42.6444 113.793 42.6911 114.028 42.6911C114.304 42.6911 116.109 42.5488 118.226 42.5488C120.346 42.5488 121.955 42.6911 122.231 42.6911C122.583 42.313 122.424 42.2185 122.152 42.1707C120.385 41.7936 120.269 39.5716 120.269 36.5945V30.8261C120.269 24.209 121.797 18.4406 126.467 18.4406C130.627 18.4406 132.237 23.0736 132.237 27.423V36.5945C132.237 40.7995 131.53 42.0772 130.115 42.2663C130.706 42.6911 132.117 42.5498 134.235 42.5498C136.394 42.5498 137.415 42.6922 137.767 42.6922C138.157 42.6922 138.355 42.6922 138.355 42.5498C138.355 42.4542 138.12 42.313 137.846 42.2185C136.71 41.7458 136.197 41.0841 136.277 36.5945V27.4708C136.277 19.9542 132.236 17.2595 127.919 17.2595C122.739 17.2595 120.816 20.5681 119.916 24.5872L119.833 17.78ZM146.754 26.0518C147.223 21.9871 149.303 18.1581 153.168 18.1581C157.583 18.1581 159.58 21.4199 159.58 26.0518H146.754ZM164.93 26.9504C164.339 20.3801 158.732 17.2595 154.102 17.2595C146.883 17.2595 141.533 22.6955 141.533 30.2589C141.533 37.8223 146.883 43.2583 154.102 43.2583C159.879 43.2583 164.126 39.3358 165.485 32.8112H164.593C163.147 38.3417 159.537 42.0772 154.654 42.0772C150.534 42.0772 146.458 38.8154 146.458 30.0231C146.458 29.03 146.501 28.0369 146.584 26.9493L164.93 26.9504ZM109.986 26.9504C109.393 20.3801 103.786 17.2595 99.1581 17.2595C91.9388 17.2595 86.5878 22.6955 86.5878 30.2589C86.5878 37.8223 91.9399 43.2583 99.1581 43.2583C104.935 43.2583 109.18 39.3358 110.539 32.8112H109.647C108.203 38.3417 104.595 42.0772 99.7104 42.0772C95.5904 42.0772 91.514 38.8154 91.514 30.0231C91.514 29.03 91.5575 28.0369 91.6404 26.9493L109.986 26.9504ZM91.8082 26.0518C92.2766 21.9871 94.3573 18.1581 98.2213 18.1581C102.64 18.1581 104.633 21.4199 104.633 26.0518H91.8082ZM88.796 0.666992H95.5968L99.464 12.7274H98.9542L88.796 0.666992ZM0.666016 48.2758H187.333V51.5259H0.666016V48.2758Z" fill="white" fill-opacity="0.35"/>
</g>
<defs>
<clipPath id="clip0_612_2736">
<rect width="186.667" height="46.6667" fill="white" transform="translate(0.666016 0.666992)"/>
</clipPath>
</defs>
</svg>