<svg width="164" height="56" viewBox="0 0 164 56" fill="none" xmlns="http://www.w3.org/2000/svg">
<path d="M40.5149 46.0667L54.1206 20.4928H40.5149L41.88 7.06861L29.0931 26.9998H43.1542L40.5149 46.0667ZM122.015 41.1978H139.398L149.272 26.8636L138.852 11.6649H122.015V25.2707H136.212V27.9555L122.015 27.91V41.1978ZM13.6667 9.48038C13.6667 9.48038 16.5338 9.29857 20.9478 12.2106C23.7502 14.0596 25.2101 17.1101 25.2101 17.1101C25.2101 17.1101 26.8691 13.5149 31.323 10.4814C35.7764 7.44853 39.2861 7.52354 39.2861 7.52354L44.504 0L43.8976 7.64505C43.8976 7.64505 48.3296 8.58972 51.709 10.7092C54.3939 12.3928 58.2167 17.4741 58.2167 17.4741C58.2167 17.4741 58.8642 14.44 61.584 12.3928C64.3033 10.3457 69.0161 9.34403 69.0161 9.34403H102.144V41.2581H119.133V9.34403H140.368L151.168 24.6336L160.997 9.82956H163.667L152.382 26.9391L163.667 43.8067H160.755L150.683 28.752L140.854 43.4426H99.1108V11.6495L83.5782 11.771L83.4567 25.2405H97.8972V27.7885L83.4567 27.91L83.3806 43.4727L68.6521 43.4426V33.2496C68.6521 33.2496 65.8097 32.5518 63.6318 31.3228C61.4532 30.094 59.1871 27.91 59.1871 27.91C59.1871 27.91 59.1444 32.7948 54.4853 37.7391C50.0254 42.4716 44.0186 43.1996 44.0186 43.1996L37.2236 55.3347L39.1651 43.1996C39.1651 43.1996 32.7335 42.3808 28.6381 38.1485C25.147 34.5413 23.6325 28.0315 23.6325 28.0315C23.6325 28.0315 22.1809 29.8757 19.4457 31.2775C16.7112 32.6793 13.9245 33.0066 13.9245 33.0066V43.1996H0.333984V9.34403L13.6667 9.48038Z" fill="white" fill-opacity="0.35"/>
</svg>
