<svg width="210" height="35" viewBox="0 0 210 35" fill="none" xmlns="http://www.w3.org/2000/svg">
<path d="M8.9233 34.2869C15.6686 34.2869 18.0598 30.3967 18.0598 24.9362V9.48273H13.3845V11.3029H13.3132C11.8856 9.91101 9.99408 9.23291 8.06684 9.23291C3.42722 9.23291 0.000976562 12.9089 0.000976562 18.0481C0.000976562 23.1161 3.53424 26.6137 8.31661 26.6137C10.3866 26.6137 12.1354 25.8998 13.3845 24.615H13.4559V26.3638C13.4559 28.4339 11.8141 30.2182 8.56651 30.2182C6.28235 30.2182 4.60488 29.5402 2.89183 28.5766L1.78547 32.5381C3.85545 33.7159 6.24663 34.2869 8.9233 34.2869ZM9.1732 22.4023C6.67486 22.4023 4.74762 20.6535 4.74762 17.9054C4.74762 15.2644 6.56784 13.4443 9.1732 13.4443C11.6714 13.4443 13.5629 15.2287 13.5629 17.8698C13.5629 20.5108 11.7429 22.4023 9.1732 22.4023Z" fill="white" fill-opacity="0.35"/>
<path d="M21.792 26.9349H26.4673V18.869C26.4673 16.2281 28.0021 14.3008 30.8929 14.3008C31.1784 14.3008 31.6423 14.3008 32.142 14.3365V9.23291H31.7851C29.7508 9.23291 27.8593 10.2322 26.5388 12.0167H26.4673V9.48273H21.792V26.9349Z" fill="white" fill-opacity="0.35"/>
<path d="M42.2177 27.2561C47.6426 27.2561 51.4614 23.5444 51.4614 18.2266C51.4614 12.8732 47.6426 9.23291 42.2177 9.23291C36.6502 9.23291 32.9385 13.016 32.9385 18.2266C32.9385 23.4373 36.6502 27.2561 42.2177 27.2561ZM42.2177 23.0447C39.5411 23.0447 37.6853 20.939 37.6853 18.2266C37.6853 15.4785 39.5053 13.4086 42.2177 13.4086C44.7874 13.4086 46.7146 15.3715 46.7146 18.2266C46.7146 21.0817 44.7161 23.0447 42.2177 23.0447Z" fill="white" fill-opacity="0.35"/>
<path d="M57.6506 26.9341H61.6834L64.7884 16.3343H64.8241L67.9648 26.9341H71.9977L77.9221 9.48193H73.2468L69.9277 20.153H69.8563L66.7157 9.48193H62.9682L59.8633 20.153H59.8276L56.4728 9.48193H51.7617L57.6506 26.9341Z" fill="white" fill-opacity="0.35"/>
<path d="M93.9966 27.2552C96.3522 27.2552 97.4942 26.7556 98.6005 26.1489L97.4229 22.4014C96.6377 22.7941 95.7811 23.0081 95.2101 23.0081C94.1038 23.0081 93.7111 22.2944 93.7111 20.7597V13.372H98.4222V9.48188H93.7111V3.30762L89.0358 3.80727V9.48188H86.9658V13.372H89.0358V21.4378C89.0358 25.3637 90.9987 27.2552 93.9966 27.2552Z" fill="white" fill-opacity="0.35"/>
<path d="M101.067 26.9344H105.743V18.1191C105.743 14.9785 107.314 13.4081 109.811 13.4081C112.025 13.4081 113.203 14.4788 113.203 17.6552V26.9344H117.877V16.4774C117.877 11.124 115.202 9.23245 111.489 9.23245C109.205 9.23245 107.207 10.0176 105.778 11.588H105.743V0.666992H101.067V26.9344Z" fill="white" fill-opacity="0.35"/>
<path d="M137.749 18.0481C137.749 12.9446 134.323 9.23291 129.398 9.23291C124.223 9.23291 120.546 12.8732 120.546 18.191C120.546 23.6514 124.329 27.2561 129.683 27.2561C133.573 27.2561 135.822 25.8285 137.284 23.937L134.251 21.1175C133.323 22.2595 131.967 23.0804 130.004 23.0804C127.649 23.0804 125.971 21.8313 125.4 19.7256H137.641C137.678 19.4401 137.749 18.6192 137.749 18.0481ZM129.361 13.3015C131.397 13.3015 132.645 14.5149 133.11 16.3708H125.436C125.971 14.3722 127.47 13.3015 129.361 13.3015Z" fill="white" fill-opacity="0.35"/>
<path d="M140.663 26.9349H145.338V18.869C145.338 16.2281 146.873 14.3008 149.764 14.3008C150.049 14.3008 150.514 14.3008 151.012 14.3365V9.23291H150.655C148.621 9.23291 146.73 10.2322 145.409 12.0167H145.338V9.48273H140.663V26.9349Z" fill="white" fill-opacity="0.35"/>
<path d="M160.196 27.2561C162.48 27.2561 164.229 26.3995 165.443 24.8292L165.514 24.8649V26.9349H169.976V9.48273H165.3V11.4814L165.228 11.517C163.979 10.0181 162.124 9.23291 160.089 9.23291C155.414 9.23291 151.88 12.9803 151.88 18.2623C151.88 23.6514 155.414 27.2561 160.196 27.2561ZM161.089 23.0447C158.447 23.0447 156.627 21.0817 156.627 18.298C156.627 15.3002 158.555 13.4086 161.089 13.4086C163.586 13.4086 165.514 15.4785 165.514 18.298C165.514 21.1532 163.48 23.0447 161.089 23.0447Z" fill="white" fill-opacity="0.35"/>
<path d="M173.704 34.0014H178.38V25.0076L178.451 24.9719C179.665 26.4352 181.378 27.2561 183.555 27.2561C188.408 27.2561 191.943 23.6514 191.943 18.2623C191.943 12.9803 188.408 9.23291 183.697 9.23291C181.557 9.23291 179.701 10.0181 178.451 11.4814H178.38V9.48273H173.704V34.0014ZM182.734 23.0447C180.165 23.0447 178.166 21.1532 178.166 18.298C178.166 15.4785 180.022 13.4086 182.699 13.4086C185.196 13.4086 187.195 15.3002 187.195 18.298C187.195 21.0817 185.339 23.0447 182.734 23.0447Z" fill="white" fill-opacity="0.35"/>
<path d="M195.869 34.0006H200.615L210.001 9.48193H205.255L201.294 20.1888H201.222L196.975 9.48193H191.979L198.974 25.8634L195.869 34.0006Z" fill="white" fill-opacity="0.35"/>
</svg>