<svg width="200" height="25" viewBox="0 0 200 25" fill="none" xmlns="http://www.w3.org/2000/svg">
<g clip-path="url(#clip0_593_1327)">
<path d="M60.4083 12.4115H56.0822V4.14892H60.4083C62.5007 4.14892 64.1673 5.99295 64.1673 8.26229C64.1673 10.5673 62.5007 12.4115 60.4083 12.4115ZM63.5289 15.4258L63.5999 15.3902C63.9901 15.2125 64.3802 14.9646 64.6993 14.7164C66.6497 13.2625 67.8197 10.8865 67.8197 8.29784C67.8197 4.04243 64.6639 0.567174 60.7986 0.567174H52.4295V24.3267H56.0468V15.9933H59.5571L59.5926 16.0288L65.089 24.3267H69.4152L63.5289 15.4258ZM79.735 20.9576H77.5363V4.04243H79.7348C83.6356 4.04243 86.579 7.83699 86.579 12.5179C86.579 17.1633 83.6357 20.9576 79.735 20.9576ZM79.8413 0.602722H73.9547V24.3621H79.8413C85.5861 24.3621 90.1251 19.0428 90.1251 12.4825C90.1251 5.95741 85.5505 0.602562 79.8413 0.602562V0.602722ZM137.218 12.4115H132.892V4.14892H137.218C139.31 4.14892 140.977 5.99295 140.977 8.26229C140.977 10.5673 139.31 12.4115 137.218 12.4115ZM140.339 15.4258L140.41 15.3902C140.8 15.2125 141.19 14.9646 141.509 14.7164C143.459 13.2625 144.629 10.8865 144.629 8.29784C144.629 4.04243 141.474 0.567174 137.608 0.567174H129.239V24.3267H132.857V15.9933H136.367L136.403 16.0288L141.899 24.3267H146.261L140.339 15.4258ZM124.487 0.602722H109.31V3.93611H115.019V24.3621H118.778V3.93611H124.487V0.602722ZM17.9963 25V0.602722H14.3794V15.7446L0.15918 0.106485V24.3622H3.77631V9.46821L3.91819 9.60993L17.9963 25ZM161.084 21.383C156.19 21.383 152.218 17.4115 152.218 12.5179C152.218 7.62402 156.19 3.65236 161.084 3.65236C165.977 3.65236 169.949 7.62402 169.949 12.5179C169.949 17.3761 165.977 21.383 161.084 21.383ZM161.084 0C154.204 0 148.601 5.60288 148.601 12.4825C148.601 19.3617 154.204 24.9645 161.084 24.9645C167.963 24.9645 173.566 19.3617 173.566 12.4825C173.566 5.60288 167.963 0 161.084 0ZM35.2306 21.383C30.3369 21.383 26.3653 17.4115 26.3653 12.5179C26.3653 7.62402 30.3369 3.65236 35.2306 3.65236C40.1243 3.65236 44.0962 7.62402 44.0962 12.5179C44.1316 17.3761 40.1244 21.383 35.2306 21.383ZM35.2306 0C28.3512 0 22.7481 5.60288 22.7481 12.4825C22.7481 19.3617 28.351 24.9645 35.2306 24.9645C42.1102 24.9645 47.7132 19.3617 47.7132 12.4825C47.7486 5.60288 42.1456 0 35.2306 0ZM106.225 18.0853C106.154 16.844 105.586 14.362 102.36 11.7731L99.5225 9.29063C98.3167 8.33323 97.7494 7.30504 97.7139 6.09928C97.7139 4.71625 98.6359 3.75869 100.019 3.68775C100.055 3.68775 101.792 3.47494 102.856 4.96461L102.891 5.03539L105.764 3.08503L105.728 3.01425C105.232 2.23379 102.998 0.106325 99.9835 0.248038C98.2812 0.318975 96.7566 0.992634 95.6927 2.05669C94.5933 3.19135 94.0613 4.6807 94.1678 6.41825C94.2743 8.43987 95.4444 10.3191 97.8913 12.305L100.551 14.6455C102.04 15.8512 102.679 16.8793 102.75 18.0853C102.821 18.972 102.501 19.8231 101.934 20.461C101.437 21.0285 100.87 21.2767 100.09 21.3476H99.9126C97.6785 21.3476 96.7565 19.7518 96.2245 18.7942L96.0825 18.546L92.9976 20.0357C93.281 20.8159 94.948 24.752 99.8417 24.752H99.9126C101.686 24.6455 103.317 23.9363 104.487 22.7307C105.693 21.5252 106.331 19.8584 106.225 18.0853ZM188.886 14.5747L199.524 0.141713V24.3974H195.907V11.3475L188.85 20.7451L181.864 11.3475V24.3974H178.247V0.106485L188.886 14.5747Z" fill="white" fill-opacity="0.35"/>
</g>
<defs>
<clipPath id="clip0_593_1327">
<rect width="199.681" height="25" fill="white"/>
</clipPath>
</defs>
</svg>
