<svg width="130" height="63" viewBox="0 0 130 63" fill="none" xmlns="http://www.w3.org/2000/svg">
<path d="M114.487 33.0741C114.396 33.2281 114.429 33.5401 114.429 33.7775V35.3114C114.429 35.5788 114.395 35.8589 114.536 36.0051C114.751 36.2269 115.277 36.1517 115.699 36.1517H118.689C119.195 36.1517 119.928 36.023 120.047 36.4448C120.05 40.1279 120.053 43.8119 120.057 47.495V50.2013C120.057 50.6345 119.996 51.1155 120.184 51.364C120.418 51.6737 121.943 51.5496 122.528 51.5496C122.779 51.5496 123.086 51.5783 123.271 51.5008C123.581 51.3709 123.515 50.9201 123.515 50.5042V37.5195C123.515 37.2134 123.453 36.6802 123.535 36.4253C123.659 36.0361 124.343 36.1517 124.834 36.1517H128.009C128.495 36.1517 129.01 36.2276 129.133 35.8586C129.192 35.6821 129.153 35.4398 129.153 35.2333C129.156 34.6699 129.159 34.1064 129.162 33.543C129.186 33.2828 129.125 33.0398 128.987 32.9373C128.773 32.7796 128.272 32.8493 127.912 32.8493H125.264C121.842 32.8461 118.418 32.8429 114.996 32.8396C114.764 32.9275 114.603 32.88 114.487 33.0741ZM107.13 32.8493C106.65 32.8493 105.221 32.764 104.961 32.9373C104.61 33.1718 104.69 33.5362 104.502 33.9143C104.11 34.7044 103.834 35.684 103.525 36.5425C103.155 37.5729 102.78 38.6226 102.382 39.6299C102.327 39.8123 102.271 39.9947 102.216 40.177C101.965 40.8691 101.691 41.6012 101.415 42.2776C101.225 42.7444 101.135 43.183 100.956 43.6553C100.654 44.4483 100.292 45.2589 100.047 46.0783C99.8334 46.7921 99.5579 47.4581 99.3045 48.13C99.0602 48.8139 98.816 49.4979 98.5717 50.1818C98.4535 50.4736 98.0106 51.3305 98.4447 51.5105C98.7121 51.6216 99.3895 51.5496 99.7441 51.5496C100.524 51.5496 101.547 51.7105 101.835 51.1979C101.963 50.9709 102.008 50.6918 102.109 50.4358C102.392 49.7138 102.64 48.9524 102.919 48.2375C103.087 47.8096 103.156 47.2686 103.662 47.1823H108.449C109.037 47.1823 109.823 47.0791 110.052 47.4461C110.274 47.8018 110.342 48.2577 110.491 48.6772C110.674 49.1924 110.913 49.7356 111.097 50.2502C111.216 50.5827 111.373 51.2959 111.635 51.4617C111.817 51.5776 112.163 51.5496 112.455 51.5496H114.224C114.556 51.5496 114.92 51.592 115.015 51.3542C115.12 51.0937 114.813 50.4908 114.732 50.2893C114.585 49.8691 114.439 49.449 114.292 49.0289C114.112 48.558 113.892 48.0421 113.725 47.5634C113.308 46.3658 112.907 45.1925 112.445 44.0461C112.4 43.88 112.354 43.7139 112.309 43.5478C112.038 42.8574 111.777 42.1109 111.498 41.4179C111.446 41.2322 111.394 41.0466 111.341 40.861C110.978 39.949 110.674 38.9864 110.306 38.0471C110.146 37.6303 109.987 37.2134 109.827 36.7965C109.535 35.9029 109.196 35.0317 108.879 34.1488C108.764 33.8277 108.611 33.1857 108.381 32.9959C108.227 32.8689 107.987 32.8412 107.707 32.8396C107.515 32.8429 107.323 32.8461 107.13 32.8493ZM84.1508 33.0545C84 33.3105 84.0824 34.6523 84.0824 35.0965V50.5042C84.0824 50.7976 84.0463 51.1683 84.1606 51.3542C84.297 51.576 84.6312 51.5496 84.991 51.5496H95.8556C96.1584 51.5496 96.5183 51.5809 96.7056 51.4617C96.8016 51.4005 96.9059 51.2591 96.9401 51.1393V48.7846C96.914 48.543 96.846 48.3984 96.6567 48.3254C96.4952 48.2632 96.1637 48.2662 95.963 48.2961H94.6343C93.0714 48.2928 91.5078 48.2896 89.9446 48.2864C89.43 48.2896 88.9155 48.2928 88.4009 48.2961C88.1299 48.3023 87.8319 48.3121 87.6779 48.1984C87.4952 48.0636 87.5118 47.7562 87.5118 47.4363V44.5443C87.5183 44.3685 87.5248 44.1926 87.5313 44.0168C87.5636 43.9028 87.6401 43.7748 87.7365 43.7236C87.9873 43.5908 88.9988 43.665 89.417 43.665H94.2044C94.8649 43.665 95.6667 43.7992 95.8165 43.2742C95.8198 42.5936 95.8231 41.9129 95.8263 41.2322C95.8263 40.9238 95.837 40.648 95.6602 40.519C95.4003 40.3298 94.5281 40.4213 94.0774 40.4213H88.4595C88.238 40.4213 87.9599 40.4493 87.7951 40.3822C87.6479 40.3223 87.5555 40.1845 87.5215 40.0109C87.5183 39.0893 87.515 38.1676 87.5118 37.246C87.5118 36.9219 87.4531 36.4451 87.6192 36.2787C87.8397 36.0579 88.7087 36.1517 89.1532 36.1517H95.5625C96.0132 36.1517 96.3767 36.1872 96.4711 35.8293C96.4744 35.1323 96.4777 34.4354 96.4809 33.7384C96.4809 33.4431 96.506 33.1288 96.3636 32.9764C96.2014 32.8028 95.8148 32.8493 95.5038 32.8493H93.3837C90.466 32.8461 87.5472 32.8429 84.6295 32.8396C84.4156 32.9213 84.257 32.8744 84.1508 33.0545ZM63.1447 50.426C63.2265 50.8455 63.2086 51.3822 63.5942 51.5203C63.8414 51.6089 64.271 51.5496 64.5712 51.5496H66.6718C66.9838 51.5496 67.5101 51.6183 67.7074 51.4812C67.9094 51.3412 67.9644 51.0159 68.0396 50.7485C68.1038 50.5209 70.1468 40.7893 70.2184 40.4799C70.2862 40.1171 70.2934 39.64 70.5604 39.4833C70.7923 39.5023 70.8278 39.8674 70.8828 40.0696C71.0196 40.7372 73.1131 50.5879 73.169 50.768C73.2709 51.096 73.2423 51.4568 73.5891 51.5399C74.589 51.5431 75.5888 51.5463 76.5886 51.5496C76.9612 51.5496 77.4729 51.6057 77.6926 51.4422C77.9871 51.2233 77.9985 50.683 78.0835 50.2502C78.2392 49.4565 81.3757 34.5673 81.464 34.3149C81.5463 34.0788 81.7835 33.1336 81.5519 32.9568C81.3673 32.8158 81.0491 32.8493 80.741 32.8493C80.1623 32.8493 78.6384 32.7484 78.357 32.9764C78.1333 33.1578 78.1483 33.5492 78.0835 33.8948C78.0219 34.224 75.8878 44.2063 75.8265 44.3978C75.767 44.5844 75.7598 44.8886 75.592 44.9645C75.5823 44.9678 75.5725 44.971 75.5627 44.9742C75.2824 44.7306 75.2902 44.3776 75.1915 43.9386C75.0808 43.4175 73.1045 34.0234 73.0583 33.7775C73.0049 33.4925 73.0104 33.1727 72.8368 33.0154C72.616 32.8155 72.1747 32.8493 71.7523 32.8493H69.5833C69.2606 32.8493 68.8109 32.7969 68.5672 32.8982C68.2087 33.0473 68.221 33.4206 68.1373 33.8557C68.0843 34.1325 66.0498 43.8972 65.9944 44.2122C65.9384 44.532 65.8954 44.8815 65.6557 45.0133C65.6166 45.0068 65.5775 45.0003 65.5384 44.9938C65.4033 44.7974 65.3636 44.5254 65.2877 44.2708C65.2258 44.0949 63.2519 34.4796 63.1056 33.8557C63.0308 33.5362 63.0262 33.1349 62.8028 32.9666C62.5953 32.8103 62.2293 32.8493 61.8844 32.8493C61.2428 32.8461 60.6013 32.8429 59.9596 32.8396C59.8134 32.8988 59.675 32.8734 59.5884 32.9861C59.4194 33.206 59.5558 33.7365 59.6274 33.9925C59.7069 34.2761 59.7385 34.5894 59.8131 34.9109L63.1447 50.426ZM51.8601 32.4292C51.4449 32.5061 51.0335 32.5191 50.5899 32.6051C49.8269 32.753 49.1443 33.0598 48.5675 33.416C47.4781 34.0885 46.603 35.0968 46.164 36.4155C46.0924 36.7086 46.0207 37.0017 45.9491 37.2948C45.9426 37.5651 45.9361 37.8355 45.9295 38.1057C45.9295 39.0912 46.1953 40.1874 46.6134 40.7926C46.792 41.0508 46.9955 41.2973 47.1801 41.5449C47.3244 41.738 47.4774 41.9282 47.6686 42.0725C47.9553 42.2874 48.2419 42.5024 48.5284 42.7173C49.1983 43.1273 50.0233 43.4348 50.8147 43.7041C52.0822 44.1353 53.7457 44.4411 54.4101 45.453C54.5335 45.6409 54.544 45.892 54.586 46.1662C54.6791 46.7769 54.3984 47.2647 54.1561 47.5634C53.3439 48.5645 52.0607 48.9289 50.4336 48.5502C49.7585 48.3928 49.0222 47.8868 48.6261 47.4363C48.4779 47.2677 48.2646 46.8462 48.0692 46.7622C47.7892 46.6417 47.4531 47.0176 47.3267 47.1432C46.8564 47.6109 46.3116 48.004 45.8416 48.472C45.7078 48.6052 45.5443 48.7087 45.4508 48.8823C45.3811 49.0119 45.4371 49.2145 45.4996 49.3025C45.7481 49.6522 46.0497 50.0076 46.3887 50.2697C46.6946 50.5065 46.9867 50.7696 47.3267 50.9732C47.5823 51.1262 47.8572 51.1923 48.1571 51.3151C48.6056 51.4985 49.157 51.7079 49.6715 51.8232C50.248 51.8818 50.8244 51.9404 51.4009 51.9991C51.6197 52.0333 51.8617 51.9883 52.0457 51.96C52.4658 51.9144 52.886 51.8688 53.3061 51.8232C53.5142 51.7802 53.6985 51.6952 53.8825 51.6376C55.5786 51.1057 56.7475 50.2039 57.5366 48.7749C57.6799 48.4231 57.8232 48.0714 57.9665 47.7197C58.0714 47.451 58.0466 47.1022 58.1033 46.772C58.3466 45.3543 57.9577 43.9852 57.4194 43.1765C56.6029 41.95 55.225 41.2801 53.6871 40.773C53.4983 40.7404 53.3094 40.7079 53.1204 40.6753C52.4079 40.4737 51.6708 40.1428 51.0198 39.8742C50.3978 39.6176 49.9015 39.2199 49.6325 38.604C49.5419 38.3969 49.3954 38.0878 49.4664 37.7638C49.5566 37.3528 49.7204 36.9213 49.9451 36.6304C50.4688 35.953 51.9588 35.4586 53.14 35.7804C53.4302 35.8595 53.7334 35.8931 53.9705 36.0247C54.3053 36.2106 54.6899 36.4328 54.9182 36.7281C55.0713 36.9261 55.1706 37.2646 55.4555 37.3241C55.7841 37.3928 56.003 37.0369 56.1492 36.8942C56.5925 36.4624 57.0745 36.0667 57.5171 35.6339C57.6799 35.4747 57.9179 35.3245 58.0056 35.0965C58.1528 34.7132 57.3653 34.0595 57.1556 33.8948C56.7999 33.615 56.4462 33.3092 56.0222 33.0936C55.5917 32.8747 55.0234 32.7269 54.5078 32.6246C54.2473 32.5986 53.9868 32.5725 53.7262 32.5465C53.267 32.4615 52.7912 32.3908 52.2411 32.3999C52.1141 32.4097 51.9871 32.4194 51.8601 32.4292ZM114.409 11.7651C114.35 11.8609 114.307 12.083 114.331 12.2439C114.401 12.7128 114.202 13.7918 114.487 14.0123C114.73 14.1995 115.329 14.11 115.728 14.11H118.865C119.361 14.11 120.182 13.9866 120.301 14.3738C120.385 14.6496 120.32 15.0938 120.32 15.4094C120.317 16.1584 120.314 16.9076 120.311 17.6566C120.314 20.6851 120.317 23.7145 120.32 26.7429V29.0389C120.32 29.3985 120.268 29.7965 120.438 30.0062C120.65 30.2687 121.403 30.1723 121.864 30.1723C122.148 30.1723 122.542 30.2208 122.763 30.1332C123.113 29.9942 123.036 29.5193 123.036 29.0682V14.3933C123.06 14.2842 123.136 14.1764 123.232 14.1393C123.384 14.0807 123.575 14.11 123.769 14.11H127.804C128.19 14.11 128.708 14.1823 128.928 13.9927C128.988 13.9406 129.035 13.8175 129.055 13.7289C129.058 13.146 129.061 12.563 129.065 11.9801C128.982 11.5258 128.57 11.5795 128.039 11.5795H114.751C114.608 11.642 114.487 11.6407 114.409 11.7651ZM100.526 11.7944C100.388 12.0198 100.467 13.3332 100.467 13.7582V29.0878C100.467 29.3809 100.414 29.7411 100.526 29.9378C100.666 30.1837 100.996 30.1723 101.386 30.1723H111.644C111.943 30.1723 112.288 30.1996 112.475 30.0844C112.7 29.9453 112.67 29.6193 112.67 29.2539C112.67 28.6468 112.809 27.8584 112.328 27.7102C112.129 27.649 111.889 27.6809 111.644 27.6809H103.975C103.709 27.6809 103.416 27.7232 103.252 27.6027C103.013 27.4278 103.066 27.0263 103.066 26.6355V24.2808C103.069 23.5838 103.073 22.887 103.076 22.19C103.107 22.0604 103.198 21.9353 103.31 21.8871C103.467 21.8204 103.673 21.848 103.877 21.848H109.974C110.625 21.848 111.471 22.0122 111.625 21.4865C111.672 21.325 111.635 21.1074 111.635 20.9296C111.634 20.4431 111.758 19.6243 111.468 19.4055C111.225 19.2218 110.231 19.3175 109.788 19.3175H105.333C104.971 19.3142 104.61 19.311 104.248 19.3078C103.994 19.3468 103.533 19.3697 103.33 19.2882C103.205 19.238 103.109 19.1065 103.076 18.9658C103.073 17.7641 103.069 16.5623 103.066 15.3606C103.066 14.9613 102.964 14.3523 103.213 14.1881C103.453 14.0292 104.339 14.11 104.737 14.11H108.635C109.518 14.1133 110.4 14.1165 111.283 14.1197C111.649 14.1758 112.066 14.1158 112.143 13.8657C112.177 13.7547 112.138 13.613 112.152 13.4944C112.199 13.1232 112.197 11.7993 112.016 11.6674C111.837 11.5371 111.44 11.5795 111.136 11.5795H100.907C100.737 11.6531 100.616 11.6469 100.526 11.7944ZM84.4146 11.7456C84.2687 11.9611 84.3462 13.3082 84.3462 13.7387V29.0976C84.3462 29.3812 84.3026 29.7723 84.4048 29.9671C84.5217 30.1892 84.8445 30.1723 85.1864 30.1723H95.4941C95.7637 30.1723 96.1115 30.2078 96.2855 30.1039C96.4992 29.9766 96.4809 29.6659 96.4809 29.3223C96.4809 28.7425 96.6238 27.8385 96.1682 27.7004C95.9845 27.6447 95.7461 27.6809 95.5429 27.6809H87.8928C87.6137 27.6809 87.2952 27.7121 87.1209 27.5832C86.9145 27.4304 86.9549 27.0233 86.9549 26.6648V22.8446C86.9614 22.6199 86.9679 22.3952 86.9744 22.1704C87.0975 21.6839 88.2742 21.848 88.8894 21.848H93.8233C94.4301 21.848 95.3091 22.0093 95.455 21.5256C95.5267 21.2885 95.4843 20.9215 95.4843 20.6365C95.4778 20.3141 95.4713 19.9917 95.4648 19.6693C95.444 19.5751 95.3996 19.4706 95.3377 19.4152C95.1244 19.2244 94.1292 19.3175 93.7061 19.3175C92.2181 19.3142 90.7291 19.311 89.2411 19.3078H87.9514C87.7219 19.3436 87.3317 19.3429 87.1698 19.2589C87.0728 19.2084 86.9917 19.085 86.9646 18.9658C86.9614 17.7608 86.9581 16.5558 86.9549 15.3508C86.9549 14.9899 86.8647 14.3341 87.0916 14.1881C87.3339 14.0324 88.182 14.11 88.5767 14.11H95.0251C95.4739 14.11 95.9387 14.1803 96.0314 13.7973C96.0347 13.628 96.038 13.4587 96.0412 13.2893C95.9848 12.8268 96.1682 11.8869 95.8849 11.6772C95.6999 11.5404 95.3023 11.5795 94.986 11.5795H84.7468C84.613 11.6381 84.4905 11.6336 84.4146 11.7456ZM70.1402 18.956C70.2184 18.7235 70.2116 18.0044 70.5213 18.0767C70.7304 18.1699 70.7265 18.5815 70.7851 18.829C70.9606 19.5686 72.9169 28.6878 72.9638 28.9315C73.0638 29.4496 72.9697 29.8186 73.3351 30.0746C73.5218 30.2052 73.8884 30.1723 74.2047 30.1723H75.9438C76.1988 30.1723 76.5512 30.2156 76.7449 30.1332C77.07 29.9948 76.9967 29.5747 77.126 29.2441C77.1898 29.0806 80.74 12.3862 80.783 12.2757C80.8456 12.1149 80.88 11.94 80.7605 11.7456C80.655 11.5739 80.4157 11.5795 80.1352 11.5795C79.5685 11.5828 79.0019 11.586 78.4352 11.5892C78.0552 11.6755 78.1291 12.025 78.0248 12.3904C77.9662 12.576 75.3207 24.9527 75.3078 25.0133C75.2706 25.1826 75.227 25.3745 75.1133 25.4337C75.0906 25.437 75.0677 25.4402 75.0449 25.4435C74.8994 25.2881 74.8332 25.0677 74.7824 24.8276C74.7489 24.6691 72.19 12.6011 72.1744 12.4705C72.1331 12.1272 72.0881 11.815 71.8403 11.6576C71.669 11.5488 71.3355 11.5795 71.0586 11.5795C70.4822 11.5762 69.9058 11.573 69.3293 11.5697C69.2433 11.6046 69.1603 11.5987 69.0948 11.6479C69.0424 11.6873 68.9884 11.7837 68.9376 11.9055C68.8265 12.1699 66.268 24.3004 66.2028 24.5544C66.1367 24.8882 66.1751 25.3999 65.8413 25.4533C65.6193 25.3575 65.654 25.0016 65.5873 24.7498C65.5359 24.556 63.7847 16.138 63.3401 14.3542C63.1855 13.7338 63.1177 13.0886 62.9689 12.5077C62.8953 12.2207 62.9063 11.8534 62.7051 11.6967C62.4615 11.5072 61.3907 11.5795 60.9269 11.5795C60.7256 11.5795 60.4579 11.5476 60.3016 11.6088C59.9502 11.7469 63.8238 29.3018 63.8423 29.4233C63.8981 29.788 63.9459 30.0788 64.366 30.1625C65.1476 30.1658 65.9293 30.169 66.7109 30.1723C67.0291 30.1723 67.4414 30.2136 67.6391 30.0844C67.7576 30.0068 67.8074 29.8801 67.8371 29.7326L70.1402 18.956ZM51.1273 11.1496C50.73 11.2408 50.3327 11.3319 49.9353 11.4232C48.9981 11.6912 47.8693 12.3627 47.3267 13.0255C46.8643 13.5902 46.4584 14.2289 46.2226 15.0186C46.1237 15.3505 46.1682 15.7406 46.1054 16.1324C46.0634 16.3949 46.0768 16.7795 46.1152 17.0313C46.1598 17.3234 46.1181 17.6184 46.1836 17.8813C46.5151 19.2117 47.327 20.1698 48.3135 20.8515C48.5809 21.0361 48.8782 21.1527 49.1928 21.2911C49.6637 21.4986 50.222 21.7497 50.717 21.9164C51.9979 22.3479 53.2761 22.6071 54.2342 23.3526C54.6912 23.708 54.9299 24.0154 55.0843 24.6912C55.1312 24.897 55.1638 25.2038 55.1233 25.4533C55.0703 25.7799 55.0276 26.1062 54.8986 26.3619C54.2727 27.6027 52.6254 28.4729 50.6193 28.0326C50.2887 27.96 49.8823 27.8166 49.6129 27.6516C49.1899 27.392 48.7216 27.0676 48.4307 26.6745C48.2451 26.4234 48.1546 25.9535 47.8152 25.8636C47.5583 25.7955 47.3531 25.9864 47.2192 26.0883C46.9268 26.3111 46.6145 26.5342 46.3008 26.7332C46.0608 26.8856 45.712 27.036 45.568 27.2803C45.4723 27.4431 45.5984 27.6591 45.6657 27.759C45.9029 28.1114 46.2139 28.4436 46.5157 28.7361C47.2407 29.4382 48.1607 29.9867 49.2514 30.3188C49.4403 30.3514 49.6292 30.384 49.8181 30.4165C50.0607 30.4794 50.2982 30.5465 50.5802 30.5924C50.8863 30.6022 51.1925 30.6119 51.4986 30.6217C51.681 30.625 51.8634 30.6282 52.0457 30.6315C52.2868 30.6217 52.5277 30.6119 52.7687 30.6022C53.0654 30.554 53.3061 30.481 53.5503 30.4165C53.7067 30.3905 53.863 30.3644 54.0193 30.3384C55.4086 29.9303 56.5235 28.9158 57.1946 27.7786C57.6194 27.0589 57.7991 26.1173 57.7906 24.994C57.788 24.6482 57.7975 24.3082 57.732 24.017C57.4913 22.9471 56.9784 21.9653 56.2469 21.3888C55.5158 20.8127 54.598 20.344 53.6285 20.021C53.4364 19.9754 53.2442 19.9298 53.052 19.8842C51.9415 19.5361 50.376 19.1465 49.6227 18.4577C49.3622 18.2193 49.0775 17.9745 48.9388 17.6175C48.8932 17.4351 48.8476 17.2527 48.802 17.0704C48.7405 16.8854 48.6369 16.6662 48.6652 16.406C48.8082 15.0932 49.5308 14.2989 50.5802 13.8853C50.73 13.8527 50.8798 13.8202 51.0296 13.7876C51.1794 13.7387 51.3293 13.6899 51.479 13.641C51.7588 13.5696 52.4929 13.5687 52.7882 13.6312C53.0879 13.7224 53.3875 13.8136 53.6871 13.9048C54.1203 14.0865 54.5609 14.4174 54.8595 14.745C55.0572 14.9619 55.1764 15.3394 55.5239 15.3997C55.7868 15.4452 55.9463 15.2515 56.0808 15.1554C56.2379 15.043 56.3703 14.9134 56.5205 14.8037C56.851 14.5623 57.3272 14.3699 57.5366 14.0123C57.6373 13.8403 57.4995 13.6651 57.4389 13.5628C57.2334 13.2156 56.9878 12.9783 56.7061 12.7128C55.8506 11.9067 54.7632 11.4349 53.3745 11.1496C52.8954 11.0513 52.2857 11.1033 51.7526 11.1105C51.5442 11.1236 51.3358 11.1365 51.1273 11.1496ZM30.9322 0.548851C30.5472 0.615914 30.0528 0.653745 29.6523 0.773567C28.8553 1.01196 28.1262 1.35134 27.4246 1.67243C27.2716 1.72457 27.1186 1.77662 26.9654 1.82876C26.6437 1.98148 26.3119 2.16814 25.9982 2.31727C25.868 2.3694 25.7377 2.42146 25.6074 2.47359C24.4812 3.13344 23.3368 3.71864 22.2562 4.41788C20.6639 5.44829 19.1313 6.56085 17.6544 7.71045C17.4922 7.83684 17.3561 7.99379 17.205 8.13058C16.9314 8.3488 16.6578 8.56695 16.3842 8.78518C16.1563 9.00662 15.9283 9.22813 15.7003 9.44956C15.4789 9.6352 15.2575 9.82083 15.036 10.0065C14.8047 10.2481 14.5931 10.5396 14.3325 10.749C14.0661 10.9633 13.8466 11.1994 13.629 11.4622C13.4923 11.599 13.3555 11.7358 13.2187 11.8726C12.8892 12.2028 12.5934 12.5822 12.3003 12.9473C12.1375 13.1101 11.9747 13.273 11.8118 13.4358C11.1171 14.3461 10.3498 15.1997 9.68185 16.1324C9.35974 16.5822 9.07711 17.0463 8.75367 17.5003C8.67231 17.5915 8.59086 17.6826 8.50942 17.7738C6.07857 21.3429 4.05058 25.4425 2.47139 29.8499C2.43231 30.0095 2.39323 30.169 2.35415 30.3286C2.2226 30.709 2.06722 31.1685 1.95357 31.5499C1.92426 31.7225 1.89495 31.8951 1.86564 32.0677C1.80702 32.2305 1.74839 32.3934 1.68977 32.5562C1.66374 32.7679 1.63772 32.9796 1.61161 33.1913C1.54001 33.403 1.46834 33.6147 1.39666 33.8264C1.37712 34.0902 1.35758 34.354 1.33804 34.6178C1.26965 34.8653 1.20126 35.1128 1.13287 35.3603C1.11333 35.7576 1.09379 36.155 1.07425 36.5523C0.994833 37.0115 0.967477 37.4716 0.888611 37.9592C0.882124 38.4412 0.875636 38.9232 0.869071 39.4052C0.815061 39.7383 0.82741 40.4877 0.878841 40.8121C0.882124 41.1378 0.885407 41.4634 0.888611 41.7891C0.958957 42.2187 0.986626 42.6495 1.06448 43.0495C1.09379 43.4501 1.1231 43.8507 1.15241 44.2512C1.20783 44.4206 1.26316 44.5899 1.3185 44.7593C1.34781 45.0393 1.37712 45.3195 1.40644 45.5995C1.47162 45.7689 1.53673 45.9382 1.60184 46.1076C1.62466 46.277 1.64749 46.4463 1.67023 46.6156C1.73542 46.7915 1.80053 46.9674 1.86564 47.1432C2.43591 49.2598 3.31523 51.0106 4.3082 52.6927C4.43201 52.9337 4.55574 53.1748 4.67947 53.4157C5.17846 54.1921 5.68417 54.9793 6.24272 55.702C6.71364 56.3113 7.265 56.8607 7.80596 57.402C7.98182 57.5909 8.15769 57.7798 8.33355 57.9687C8.55178 58.1315 8.77001 58.2944 8.98816 58.4572C9.18036 58.6266 9.37248 58.7959 9.5646 58.9653C10.4957 59.626 11.4298 60.2575 12.5348 60.7434L12.9353 60.9779C13.2643 61.1082 13.5932 61.2384 13.9221 61.3687C14.0101 61.4143 14.098 61.46 14.1859 61.5055C14.9972 61.7918 15.8544 61.997 16.6969 62.2285C16.977 62.2741 17.2571 62.3197 17.5371 62.3653C17.8918 62.448 18.281 62.4936 18.6705 62.5607C18.9962 62.5867 19.3219 62.6128 19.6475 62.6389C19.8625 62.6454 20.0774 62.6519 20.2924 62.6584C20.8027 62.7411 21.5153 62.7184 22.0119 62.6389C22.5174 62.5581 22.9825 62.6157 23.4482 62.5216C24.4868 62.3119 25.497 62.0895 26.4085 61.7791C26.8208 61.6387 27.2381 61.5351 27.6005 61.3687C27.9197 61.2384 28.2389 61.1082 28.558 60.9779C28.6818 60.9063 28.8055 60.8347 28.9293 60.763C29.877 60.3184 30.6967 59.8195 31.5282 59.2681C32.3538 58.7207 33.0768 58.0224 33.7655 57.3336C34.3017 56.7979 34.8566 56.2709 35.3288 55.6727C36.1759 54.5996 36.9174 53.3864 37.5564 52.1163C37.8557 51.5216 38.057 50.9093 38.3087 50.2697C38.6028 49.5223 38.8647 48.6928 39.061 47.8467C39.136 47.3451 39.2109 46.8436 39.2857 46.3421C39.2988 46.1402 39.3119 45.9382 39.3248 45.7363C39.3792 45.4087 39.3245 45.0449 39.3834 44.6811C39.432 44.3825 39.4307 43.9829 39.3834 43.6846V43.3719C39.3541 42.9453 39.3248 42.5186 39.2955 42.092C39.1141 41.0189 39.0395 39.9501 38.7679 38.9753C38.4579 37.8628 38.1387 36.7604 37.7323 35.7218C36.851 33.4694 35.6841 31.4366 34.4006 29.5763C34.2411 29.3874 34.0815 29.1985 33.9219 29.0096C33.0419 27.8124 32.035 26.7482 31.069 25.6389C30.981 25.5119 30.8931 25.3849 30.8052 25.2578C30.5609 24.9778 30.3166 24.6977 30.0724 24.4176C29.9096 24.1766 29.7468 23.9356 29.5839 23.6946C28.9723 22.858 28.3219 21.9982 27.7764 21.0957C27.6429 20.8417 27.5094 20.5877 27.3758 20.3336C27.0921 19.8285 26.7424 19.3071 26.5062 18.7606C26.4085 18.4935 26.3108 18.2265 26.2131 17.9595C26.0751 17.622 25.8949 17.2508 25.7637 16.8945C25.7116 16.686 25.6595 16.4777 25.6074 16.2692C25.5553 16.1389 25.5032 16.0087 25.4511 15.8784C25.4315 15.683 25.412 15.4876 25.3924 15.2922C25.3332 15.0587 25.2267 14.8724 25.1775 14.6083C25.0873 14.1259 25.1579 13.5146 25.1579 12.9962C25.1645 12.4457 25.171 11.8954 25.1775 11.345C25.2227 11.1021 25.3404 10.9411 25.4022 10.7295C25.4217 10.5601 25.4413 10.3908 25.4608 10.2214C25.5292 10.0651 25.5976 9.90876 25.666 9.75244C25.6986 9.62871 25.7312 9.5049 25.7637 9.38117C26.5757 7.30143 28.062 5.32127 29.7207 4.08569C30.4124 3.57044 31.254 3.21222 32.0167 2.7667C32.4391 2.51987 32.9175 2.3075 33.1696 1.89715C33.2315 1.79616 33.2494 1.67079 33.2575 1.51611C33.266 1.35423 33.2793 1.14062 33.2282 0.998283C33.0397 0.472643 32.0854 0.560263 31.6845 0.5C31.4337 0.516258 31.183 0.532594 30.9322 0.548851ZM106.611 38.1068L108.916 44.1158H104.33L106.611 38.1067V38.1068Z" fill="white" fill-opacity="0.35"/>
</svg>
