<svg width="180" height="43" viewBox="0 0 180 43" fill="none" xmlns="http://www.w3.org/2000/svg">
<g clip-path="url(#clip0_593_1329)">
<path d="M158.087 14.3975C159.089 14.3975 159.914 13.8764 160.025 13.2033L161.015 2.01389C161.015 0.90793 159.719 0 158.09 0C156.463 0 155.168 0.907925 155.168 2.01409L156.157 13.2033C156.266 13.8762 157.091 14.3975 158.09 14.3975H158.087ZM152.039 17.8924C152.542 17.0256 152.504 16.0514 151.974 15.6186L142.777 9.16711C141.821 8.61333 140.387 9.2799 139.573 10.6911C138.757 12.1005 138.902 13.6746 139.855 14.2286L150.039 18.9702C150.676 19.2062 151.544 18.752 152.043 17.8858L152.039 17.8924ZM164.14 17.8864C164.641 18.7526 165.505 19.207 166.142 18.9708L176.326 14.2292C177.286 13.6754 177.422 12.1011 176.613 10.6917C175.796 9.2819 174.359 8.61393 173.406 9.16771L164.208 15.6192C163.682 16.0514 163.643 17.0264 164.143 17.893L164.14 17.8864ZM158.087 28.3747C159.089 28.3747 159.914 28.8914 160.025 29.5651L161.015 40.7529C161.015 41.8623 159.719 42.7682 158.09 42.7682C156.463 42.7682 155.168 41.8623 155.168 40.7529L156.157 29.5651C156.266 28.8914 157.091 28.3747 158.09 28.3747H158.087ZM164.14 24.879C164.641 24.0104 165.505 23.56 166.142 23.7988L176.326 28.5372C177.286 29.0916 177.422 30.6673 176.613 32.0779C175.796 33.4831 174.359 34.1529 173.406 33.5999L164.208 27.1544C163.682 26.7188 163.643 25.7432 164.143 24.8772H164.139M152.039 24.8778C152.542 25.7432 152.504 26.7188 151.974 27.1552L142.777 33.6005C141.821 34.1535 140.387 33.4837 139.573 32.0785C138.757 30.6679 138.902 29.0922 139.855 28.5378L150.039 23.7993C150.676 23.5606 151.544 24.011 152.043 24.8798H152.039" fill="white" fill-opacity="0.35"/>
<path d="M100.04 27.1599C100.04 27.5033 100.01 27.8574 99.9155 28.1685C99.5254 29.4603 98.1879 30.5527 96.5146 30.5527C95.1193 30.5527 94.0112 29.7601 94.0112 28.0862C94.0112 25.5244 96.831 24.8169 100.041 24.8346L100.04 27.1597V27.1599ZM105.075 22.6954C105.075 18.4709 103.27 14.7538 97.1706 14.7538C94.0397 14.7538 91.5549 15.6332 90.1986 16.4169L91.192 19.8131C92.4315 19.0305 94.4071 18.3827 96.2766 18.3827C99.3703 18.3741 99.877 20.1347 99.877 21.2614V21.5281C93.1332 21.5181 88.8703 23.8532 88.8703 28.6101C88.8703 31.5167 91.0415 34.2391 94.8157 34.2391C97.1348 34.2391 99.0773 33.3134 100.24 31.8291H100.354C100.354 31.8291 101.124 35.0516 105.37 33.8187C105.148 32.4785 105.076 31.048 105.076 29.3277L105.075 22.6954M0 9.0008C0 9.0008 4.40688 27.0583 5.11059 29.9889C5.93147 33.4096 7.41095 34.6689 11.6745 33.8187L14.426 22.6237C15.1237 19.8416 15.5907 17.8581 16.0402 15.0309H16.1185C16.4341 17.888 16.8819 19.8502 17.456 22.6329C17.456 22.6329 18.5756 27.7155 19.1499 30.3842C19.7249 33.0521 21.3251 34.7346 25.5018 33.8187L32.0585 9H26.7663L24.5268 19.7308C23.9247 22.8531 23.3789 25.2956 22.9577 28.1513H22.8828C22.5001 25.3207 22.0128 22.9778 21.4014 19.9351L19.0717 9H13.5566L11.0632 19.6594C10.3575 22.8994 9.69573 25.5146 9.27651 28.2753H9.20025C8.76984 25.6757 8.1969 22.3875 7.57684 19.2527C7.57684 19.2527 6.09657 11.6282 5.57593 9L0 9.0008ZM42.0693 27.1599C42.0693 27.5033 42.0387 27.8574 41.9433 28.1685C41.554 29.4603 40.2157 30.5527 38.5424 30.5527C37.147 30.5527 36.0404 29.7601 36.0404 28.0862C36.0404 25.5244 38.8594 24.8169 42.0699 24.8346L42.0693 27.1597V27.1599ZM47.1034 22.6954C47.1034 18.4709 45.2983 14.7538 39.2004 14.7538C36.0687 14.7538 33.5819 15.6332 32.2264 16.4169L33.2186 19.8131C34.4579 19.0305 36.4335 18.3827 38.3036 18.3827C41.3995 18.3741 41.9062 20.1347 41.9062 21.2614V21.5281C35.1596 21.5181 30.8987 23.8532 30.8987 28.6101C30.8987 31.5167 33.0687 34.2391 36.8401 34.2391C39.1624 34.2391 41.1037 33.3134 42.2675 31.8291H42.3809C42.3809 31.8291 43.1523 35.0516 47.3977 33.8187C47.1757 32.4785 47.1034 31.048 47.1034 29.3277V22.6954ZM55.5051 28.5504V9.0008H50.4644V33.8195H55.5051V28.5504ZM121.447 9.0008V27.3091C121.447 29.8344 121.923 31.6018 122.938 32.6834C123.828 33.629 125.289 34.2411 127.042 34.2411C128.533 34.2411 129.998 33.9566 130.69 33.7001L130.625 29.7621C130.11 29.8879 129.52 29.9897 128.711 29.9897C126.993 29.9897 126.419 28.8893 126.419 26.6233V19.6182H130.808V14.869H126.419V9.0008H121.447ZM108.436 15.1748V33.8195H113.636V24.2731C113.636 23.757 113.667 23.3074 113.749 22.8962C114.133 20.8955 115.662 19.6182 117.859 19.6182C118.461 19.6182 118.892 19.6837 119.359 19.75V14.869C118.967 14.7909 118.701 14.7544 118.214 14.7544C116.273 14.7544 114.066 16.0065 113.139 18.6923H112.999V15.1748H108.436ZM59.0346 15.1748V33.8195H64.1007V22.8862C64.1007 22.3732 64.161 21.8306 64.3387 21.3602C64.7585 20.2595 65.783 18.9702 67.4178 18.9702C69.463 18.9702 70.4181 20.6984 70.4181 23.1926V33.8181H75.4801V22.7517C75.4801 22.2622 75.547 21.6721 75.6917 21.2404C76.1074 19.9876 77.2109 18.9688 78.7309 18.9688C80.8033 18.9688 81.7981 20.6667 81.7981 23.6025V33.8175H86.8636V22.8357C86.8636 17.045 83.923 14.7526 80.6031 14.7526C79.1342 14.7526 77.9735 15.1205 76.9239 15.7637C76.0425 16.3067 75.2519 17.0761 74.5622 18.0875H74.4874C73.6868 16.0782 71.8033 14.7536 69.3488 14.7536C66.1956 14.7536 64.7784 16.3521 63.9188 17.7076H63.8434V15.1742H59.0346" fill="white" fill-opacity="0.35"/>
</g>
<defs>
<clipPath id="clip0_593_1329">
<rect width="180" height="42.768" fill="white"/>
</clipPath>
</defs>
</svg>